<?xml version="1.0" encoding="utf-8"?>
<!-- Generator: Adobe Illustrator 26.2.1, SVG Export Plug-In . SVG Version: 6.00 Build 0)  -->
<!DOCTYPE svg PUBLIC "-//W3C//DTD SVG 1.1//EN" "http://www.w3.org/Graphics/SVG/1.1/DTD/svg11.dtd" [
	<!ENTITY ns_extend "http://ns.adobe.com/Extensibility/1.0/">
	<!ENTITY ns_ai "http://ns.adobe.com/AdobeIllustrator/10.0/">
	<!ENTITY ns_graphs "http://ns.adobe.com/Graphs/1.0/">
	<!ENTITY ns_vars "http://ns.adobe.com/Variables/1.0/">
	<!ENTITY ns_imrep "http://ns.adobe.com/ImageReplacement/1.0/">
	<!ENTITY ns_sfw "http://ns.adobe.com/SaveForWeb/1.0/">
	<!ENTITY ns_custom "http://ns.adobe.com/GenericCustomNamespace/1.0/">
	<!ENTITY ns_adobe_xpath "http://ns.adobe.com/XPath/1.0/">
]>
<svg version="1.1" id="Capa_1" xmlns:x="&ns_extend;" xmlns:i="&ns_ai;" xmlns:graph="&ns_graphs;"
	 xmlns="http://www.w3.org/2000/svg" xmlns:xlink="http://www.w3.org/1999/xlink" x="0px" y="0px"
	 viewBox="0 0 798.3145752 898.3540039" style="enable-background:new 0 0 798.3145752 898.3540039;" xml:space="preserve">
<style type="text/css">
	.st0{fill:#FFB500;}
	.st1{clip-path:url(#SVGID_00000152257244837571633900000013225546518184473759_);}
	.st2{fill:#99CF99;}
	.st3{fill:#628361;}
	.st4{fill:#2B3629;}
	.st5{fill:#010000;}
	.st6{fill:none;stroke:#020202;stroke-width:17;stroke-miterlimit:10;}
	.st7{fill:#DECBC1;}
	.st8{fill:#005EE8;}
	.st9{fill:#F5B828;}
	.st10{fill:#777A55;}
	.st11{fill:#C3AA88;}
	.st12{fill:#444A3C;}
	.st13{fill:#4C4F38;}
	.st14{fill:#8C8F7A;}
	.st15{fill:#98A28A;}
	.st16{fill:#FFFFFF;}
	.st17{fill:#A2AA93;}
	.st18{fill:#A0D194;}
	.st19{fill:#95D194;}
	.st20{fill:#95C294;}
	.st21{fill:#1D231B;}
	.st22{fill:#394937;}
	.st23{fill:#465C45;}
	.st24{fill:#546F53;}
	.st25{fill:#70966F;}
	.st26{fill:#7DA97D;}
	.st27{fill:#8BBC8B;}
	.st28{fill:none;stroke:#020202;stroke-width:26;stroke-miterlimit:10;}
	.st29{fill:#1D1D1B;}
	.st30{fill:#010000;stroke:#010000;stroke-width:0.5;stroke-miterlimit:10;}
	.st31{clip-path:url(#SVGID_00000083052104830804413400000011823984341647659401_);}
	.st32{clip-path:url(#SVGID_00000121265781506194273200000006252488443530197690_);}
	.st33{clip-path:url(#SVGID_00000021091294598675438470000007622679030221785485_);}
	.st34{fill:#87CF92;}
	.st35{fill:#606060;}
	.st36{fill:#F54836;}
	.st37{fill:#FFFFFF;stroke:#FFFFFF;stroke-miterlimit:10;}
	.st38{fill:#020202;}
	.st39{fill:none;stroke:#FFFFFF;stroke-width:8;stroke-miterlimit:10;}
	.st40{clip-path:url(#SVGID_00000165235202900154034980000011669270865901524125_);}
	.st41{clip-path:url(#SVGID_00000043457182715211192090000004843875370099029670_);}
</style>
<metadata>
	<sfw  xmlns="&ns_sfw;">
		<slices></slices>
		<sliceSourceBounds  bottomLeftOrigin="true" height="16423.0039062" width="16383" x="-7231" y="-8772.0039062">
			</sliceSourceBounds>
	</sfw>
</metadata>
<g>
	<path class="st16" d="M457.556488,546.5579224c0,2.2087402,2.2490234,3.1723633,5.5014648,3.1723633
		c4.0161133,0,6.9067383-0.963623,6.9067383-3.4934082c0-1.6064453-1.3249512-2.1687012-3.3728027-2.1687012h-5.6623535
		C459.122406,544.0681763,457.556488,544.6704712,457.556488,546.5579224z"/>
	<path class="st16" d="M485.9512634,540.1328735c0,1.4855957,1.0043945,2.6101074,3.0119629,2.6101074
		c3.092041,0,5.4611816-2.3291016,5.4611816-5.862793v-0.8435059l-3.9350586,0.8435059
		C487.7185974,537.4822388,485.9512634,538.0044556,485.9512634,540.1328735z"/>
	<path class="st16" d="M463.419281,528.8486938c-2.449707,0-3.9755859,1.3652344-3.9755859,3.8549805
		c0,2.4094238,1.5258789,3.7746582,3.9755859,3.7746582c2.4899902,0,4.0158691-1.3652344,4.0158691-3.7746582
		C467.4351501,530.2139282,465.9092712,528.8486938,463.419281,528.8486938z"/>
	<path class="st16" d="M350.3199158,522.2627563h-5.6621094v10.1599121h5.6621094
		c4.4172363,0,6.5456543-1.8071289,6.5456543-5.1000977C356.8655701,524.0698853,354.7371521,522.2627563,350.3199158,522.2627563z"
		/>
	<path class="st16" d="M415.7859802,529.2903442c-3.5339355,0-5.5014648,2.7307129-5.5014648,6.6662598
		c0,3.8950195,1.9675293,6.6657715,5.5014648,6.6657715c3.5737305,0,5.5817871-2.770752,5.5817871-6.6657715
		C421.3677673,532.0210571,419.3597107,529.2903442,415.7859802,529.2903442z"/>
	<path class="st16" d="M443.8997498,529.2903442c-3.5336914,0-5.5012207,2.7307129-5.5012207,6.6662598
		c0,3.8950195,1.9675293,6.6657715,5.5012207,6.6657715c3.5739746,0,5.5820312-2.770752,5.5820312-6.6657715
		C449.481781,532.0210571,447.4737244,529.2903442,443.8997498,529.2903442z"/>
	<path class="st16" d="M584.4534302,459.8518372c-0.2832031,3.1928711-0.1552734,6.3886719,0.9418945,9.4577637
		c1.6350098,4.5744629,5.2646484,6.6994629,9.7055664,5.6142578c2.282959-0.5578613,4.140625-1.8908691,5.7258301-3.6066895
		c3.3635254-3.640625,5.2431641-8.097168,6.873291-12.6650391c3.5898438-10.0585938,5.4921875-20.5097656,7.0654297-31.0302734
		c0.5092773-3.4060059,0.9465332-6.8227539,1.4604492-10.5512695c-0.925293,0.3532715-1.480957,0.5273438-2.0046387,0.7705078
		C596.2861938,426.1755676,586.2058716,440.0820618,584.4534302,459.8518372z"/>
	<path class="st16" d="M513.0471802,454.5700989c-2.1462097,4.2841797-3.5707703,8.8005371-3.0187683,13.6606445
		c0.7016602,6.1787109,6.2902527,8.5837402,11.160614,4.7060547c1.7751465-1.4135742,3.2341309-3.3859863,4.4086914-5.3583984
		c3.0466309-5.1157227,4.6228027-10.822998,5.9755859-16.5678711c1.0559082-4.4836426,1.9123535-9.0141602,2.9157715-13.8017578
		C525.539856,439.7678528,516.9641724,446.7507629,513.0471802,454.5700989z"/>
	<path class="st16" d="M330.1246033,420.6882629c-4.4335938-9.6921387-12.7889404-12.2583008-21.1346436-9.2207031
		c-5.3067627,1.9316406-8.3255615,6.2744141-10.5288086,11.2119141c-3.2615967,7.3093262-3.8450928,15.0869141-3.8614502,23.1708984
		c0.0941162,1.4836426,0.1503906,3.1884766,0.3190918,4.8818359c0.5362549,5.3808594,1.6401367,10.5905762,4.3791504,15.3662109
		c5.9396973,10.3566895,17.7478027,9.7600098,23.9484863,4.8112793c4.5275879-3.6132812,6.8433838-8.6113281,8.3850098-14.0058594
		c1.921875-6.7246094,2.2674561-13.6308594,1.9074707-20.567627
		C333.2593689,430.9502258,332.3999939,425.662384,330.1246033,420.6882629z"/>
	<path class="st16" d="M534.9927368,37.1194267c-165.3378601-50.6914062-366.679657,17.3486328-431.8665466,224.998764
		c-16.7869873,53.4743652-20.2462158,111.2529297-28.4310303,167.2583008
		c-5.3577881,36.6604004-8.2025146,73.6879883-12.4907265,113.5022278c16.7887001,0,30.6972694-0.2368164,45.8776894-0.2368164
		c14.9018555,0,19.0687256,6.2497559,19.0687256,19.1044922c0,43.1437988-0.6339111,86.3017578-0.15271,129.447998
		c0.473999,42.5085449,26.717041,68.3684082,68.9703369,68.8972168c13.5985107,0.1704102,27.2799072,0.9372559,40.7813721-0.2216797
		c16.0559082-1.3779297,21.9970703,3.8522949,21.2130127,20.6821289
		c-1.336792,28.6914062-0.3682861,57.4902344-0.3682861,87.2070312c159.3505859,0,286.2458191,0,446.4684753,0
		c-15.8132324-26.963623-38.0119629-71.8164062-23.6601562-153.7790527
		c5.9489746-33.4899902,16.1101074-62.5178223,27.3613281-94.7148438
		c17.5302734-50.1643066,40.4301758-98.5710449,56.0529785-149.26297
		C820.5491333,285.9184875,718.9212036,93.5107803,534.9927368,37.1194267z M268.3704529,484.07547
		c-3.8762207,0-7.6293945,0-11.6137695,0c0-0.6967773,0-1.3664551,0-2.0361328
		c-0.0002441-18.7993164,0.0361328-37.5986328-0.0385742-56.3977051c-0.0117188-2.9587402-0.3059082-5.9577637-0.8681641-8.8613281
		c-0.6260986-3.2333984-2.6551514-5.4072266-6.0996094-5.8986816c-3.5891113-0.512207-6.6591797,0.6081543-8.1455078,3.9331055
		c-1.6351318,3.657959-2.9333496,7.520752-3.8999023,11.4128418c-3.8568115,15.53125-7.5187988,31.1108398-11.2734375,46.6677246
		c-0.9135742,3.7851562-2.2907715,7.3654785-5.6201172,9.7299805c-4.440918,3.1540527-9.1931152,2.9255371-13.9559326,0.862793
		c-4.4681396-1.9353027-6.2427979-5.7001953-6.5751953-10.3161621c-0.0726318-1.0078125-0.0692139-2.0224609-0.0692139-3.0339355
		c-0.0036621-22.3674316-0.0029297-44.7348633-0.0029297-67.1022949c0-0.5742188,0-1.1481934,0-1.8190918
		c3.9857178,0,7.6994629,0,11.6070557,0c0,0.7507324,0,1.425293,0,2.1000977
		c0,22.2607422-0.0003662,44.5217285,0.0015869,66.7827148c0.0001221,0.5852051-0.135498,1.2382812,0.0776367,1.7382812
		c0.2585449,0.6069336,0.8535156,1.5412598,1.2441406,1.5134277c0.619873-0.0441895,1.2701416-0.6977539,1.7531738-1.232666
		c0.28479-0.3154297,0.2792969-0.8972168,0.3920898-1.3623047c4.1610107-17.154541,8.3027344-34.3139648,12.4934082-51.4614258
		c0.9904785-4.0529785,2.5211182-7.9187012,4.9199219-11.3615723c5.1343994-7.3688965,12.3221436-9.5803223,20.8764648-7.9626465
		c7.5499268,1.4277344,12.7774658,7.0766602,14.1074219,15.2224121c0.4182129,2.5620117,0.6523438,5.1833496,0.6593018,7.7780762
		c0.0533447,19.8642578,0.0297852,39.7287598,0.0301514,59.5932617
		C268.3704529,483.0339661,268.3704529,483.5039368,268.3704529,484.07547z M320.2566833,484.5010071
		c-14.4493408,3.5700684-28.4138184-3.8818359-33.7233887-17.810791
		c-3.5944824-9.4296875-3.9489746-19.2148438-3.2556152-29.0966797c0.5715332-8.1455078,2.4299316-15.9838867,6.5949707-23.1103516
		c4.5079346-7.7128906,10.8439941-13.1164551,19.8706055-14.6723633
		c13.5327148-2.3330078,25.213623,3.6467285,31.1619873,16.2558594c3.5787354,7.5856934,4.2921143,15.734375,4.4058838,24.1342773
		c-0.095459,9.5002441-1.3123779,18.953125-5.7070312,27.7197266
		C335.4903259,476.1272278,329.4500427,482.2297668,320.2566833,484.5010071z M350.4004822,535.2737427h-5.7426758v9.4370117
		h-3.4533691V519.411438h9.1960449c6.2642822,0,9.838623,2.9716797,9.838623,7.9111328
		C360.2391052,532.302063,356.6647644,535.2737427,350.4004822,535.2737427z M369.799408,545.192688
		c-4.376709,0-7.7102051-2.0480957-8.0314941-6.3850098l2.8114014-0.2009277
		c0.3212891,2.6904297,2.208374,4.1362305,5.2200928,4.1362305c2.3292236,0,4.0559082-0.8435059,4.0559082-2.6101074
		c0-1.6464844-1.1645508-2.2087402-3.3330078-2.6103516l-2.9716797-0.5219727
		c-3.2924805-0.5222168-5.260498-1.9274902-5.260498-4.939209c0-3.2126465,2.6904297-5.3813477,6.7463379-5.3813477
		c4.6584473,0,7.388916,2.1687012,7.7102051,6.2243652l-2.6904297,0.1608887
		c-0.4017334-2.690918-2.0479736-3.9355469-5.0197754-3.9355469c-2.208252,0-3.6542969,1.0039062-3.6542969,2.6103516
		c0,1.4052734,0.8833008,2.1279297,2.6905518,2.4492188l3.2930908,0.5222168
		c3.5336914,0.6025391,5.6221924,1.9274902,5.6221924,5.1000977
		C376.9880066,543.3052368,373.8958435,545.192688,369.799408,545.192688z M383.7764587,544.7107544h-3.3330078v-17.5488281
		h3.3330078V544.7107544z M383.8169861,523.1863403h-3.4534912v-3.7749023h3.4534912V523.1863403z M379.9292908,483.1435852
		c-5.7768555,3.807373-19.0024414,1.9650879-19.7575684-9.2316895c-0.114502-1.6987305-0.2043457-3.4033203-0.2054443-5.1049805
		c-0.0136719-21.8371582-0.0090332-43.6740723-0.0090332-65.5109863c0-0.6767578,0-1.3532715,0-2.0930176
		c3.9711914,0,7.7347412,0,11.6882324,0c0,0.6821289,0,1.3027344,0,1.9230957
		c-0.0001221,22.4760742-0.0031738,44.9521484,0.0089111,67.4282227c0.0006104,1.1203613-0.3591309,2.6264648,1.2617188,2.8537598
		c1.6809082,0.2358398,1.8295898-1.2973633,2.1135254-2.4667969c4.1157227-16.9482422,8.15625-33.9147949,12.3808594-50.8356934
		c0.829834-3.3227539,2.059082-6.6254883,3.6240234-9.6706543c4.5344238-8.8217773,12.5322266-12.4550781,22.2868652-10.4643555
		c7.748291,1.5812988,13.0834961,7.4311523,14.2705078,15.8432617c0.3779297,2.6789551,0.5864258,5.4040527,0.5959473,8.1091309
		c0.0549316,15.552002,0.0214844,31.104248,0.0378418,46.6564941c0.0012207,1.1113281-0.3793945,2.6318359,1.2727051,2.8312988
		c1.6789551,0.2026367,1.7927246-1.329834,2.0773926-2.5019531c4.1296387-16.9995117,8.1906738-34.0158691,12.4331055-50.9873047
		c0.817627-3.2712402,2.0480957-6.5163574,3.5915527-9.5148926c4.53125-8.802002,12.5654297-12.4423828,22.3029785-10.4291992
		c7.8408203,1.6208496,13.1149902,7.5336914,14.2993164,16.1875c0.3312988,2.4196777,0.5231934,4.8781738,0.5285645,7.3193359
		c0.041748,19.6533203,0.0244141,39.3063965,0.0209961,58.9597168c0,0.5222168-0.043457,1.0444336-0.0722656,1.6835938
		c-3.9384766,0-7.659668,0-11.6035156,0c0-0.6630859,0-1.2790527,0-1.8950195
		c0-19.2805176,0.0053711-38.560791-0.0058594-57.8413086c-0.0019531-3.3063965-0.0810547-6.6188965-1.6169434-9.666748
		c-2.338623-4.6408691-9.2001953-5.4135742-12.5378418-1.392334c-2.5668945,3.0925293-3.4604492,6.9155273-4.3735352,10.6843262
		c-3.9055176,16.1237793-7.6860352,32.2783203-11.6867676,48.378418c-0.6904297,2.7788086-1.8342285,5.6179199-3.4484863,7.9614258
		c-4.0378418,5.8615723-12.5605469,5.4580078-17.4550781,2.4873047c-4.4873047-2.7236328-5.3779297-7.0490723-5.4199219-11.7124023
		c-0.0822754-9.1069336-0.0214844-18.2148438-0.0307617-27.3225098c-0.0075684-7.3498535,0.0712891-14.7021484-0.1096191-22.0478516
		c-0.0551758-2.2355957-0.6142578-4.5339355-1.357666-6.6586914c-1.0234375-2.9255371-3.4750977-4.2004395-6.4833984-4.3310547
		c-2.9316406-0.1274414-5.2822266,1.0083008-6.9123535,3.5075684c-2.229248,3.4174805-3.0705566,7.3371582-4.0061035,11.2084961
		c-3.7963867,15.7126465-7.5439453,31.4370117-11.3278809,47.1525879
		C385.3006287,476.8083801,383.7237244,480.6426086,379.9292908,483.1435852z M396.1460876,542.5420532
		c3.2531738,0,5.1003418-2.2084961,5.3815918-5.3005371l2.9311523,0.2810059
		c-0.361084,4.2565918-3.1320801,7.670166-8.2722168,7.670166c-5.3010254,0-8.9953613-3.6542969-8.9953613-9.236084
		c0-5.5822754,3.6943359-9.2766113,8.9953613-9.2766113c5.1401367,0,7.9111328,3.4536133,8.2722168,7.670166l-2.9311523,0.2006836
		c-0.28125-3.092041-2.128418-5.1804199-5.3815918-5.1804199c-3.2924805,0-5.5412598,2.5302734-5.5412598,6.5861816
		C390.6048279,540.0122681,392.8536072,542.5420532,396.1460876,542.5420532z M415.7859802,545.192688
		c-5.1401367,0-8.9147949-3.7749023-8.9147949-9.236084c0-5.4614258,3.7746582-9.2766113,8.9147949-9.2766113
		c5.1806641,0,8.9951172,3.8151855,8.9951172,9.2766113C424.7810974,541.4177856,420.9666443,545.192688,415.7859802,545.192688z
		 M431.5706482,544.7107544h-3.3334961V519.411438h3.3334961V544.7107544z M443.8997498,545.192688
		c-5.1401367,0-8.9145508-3.7749023-8.9145508-9.236084c0-5.4614258,3.7744141-9.2766113,8.9145508-9.2766113
		c5.1806641,0,8.9953613,3.8151855,8.9953613,9.2766113C452.8951111,541.4177856,449.0804138,545.192688,443.8997498,545.192688z
		 M473.3382263,528.9690552c-1.1645508,0-2.489502,0.2810059-3.3735352,0.7226562
		c0.5222168,0.8432617,0.8435059,1.8474121,0.8435059,2.9716797c0,3.6542969-3.0915527,5.9433594-7.4289551,5.9433594
		c-1.4453125,0-2.7709961-0.2409668-3.8549805-0.7226562c-0.6025391,0.3613281-1.1647949,0.923584-1.1647949,1.7265625
		c0,0.9638672,0.6025391,1.5258789,2.128418,1.5258789h6.8669434c3.8149414,0,5.8225098,2.0080566,5.8225098,4.7387695
		c0,4.3769531-4.8986816,6.0637207-10.1193848,6.0637207c-4.7382812,0-8.6738281-1.4858398-8.6738281-4.7385254
		c0-2.0078125,1.4453125-3.2929688,3.6142578-3.6945801c-1.6064453-0.5219727-2.3293457-1.6865234-2.3293457-3.0117188
		c0-1.5258789,1.0842285-2.6101074,2.6506348-3.2927246c-1.4460449-1.0444336-2.2893066-2.6103516-2.2893066-4.5380859
		c0-3.6943359,3.052002-5.9833984,7.348877-5.9833984c2.2089844,0,4.1762695,0.6826172,5.5014648,1.8071289
		c0.9238281-1.4055176,2.5700684-2.4094238,4.4575195-2.4094238V528.9690552z M478.9632263,544.7107544h-3.3334961v-17.5488281
		h3.3334961V544.7107544z M479.0030212,523.1863403h-3.4533691v-3.7749023h3.4533691V523.1863403z M500.5284119,544.0278931
		c-0.6020508,0.6025391-1.3249512,1.0441895-2.6904297,1.0441895c-1.8071289,0-3.0922852-1.3652344-3.2927246-3.4536133
		c-0.9641113,2.0483398-3.4538574,3.5742188-6.3046875,3.5742188c-3.4133301,0-5.6223145-1.847168-5.6223145-4.8591309
		c0-3.3330078,2.8513184-4.6982422,7.067627-5.541748l4.7385254-0.963623v-0.6828613
		c0-2.4094238-1.4055176-3.8952637-3.8549805-3.8952637c-2.529541,0-3.8952637,1.4858398-4.4172363,3.5339355l-2.9716797-0.4016113
		c0.6828613-3.2929688,3.2929688-5.7023926,7.4291992-5.7023926c4.4172363,0,7.0273438,2.2487793,7.0273438,6.706543v7.8706055
		c0,0.9238281,0.5219727,1.3652344,1.3654785,1.3652344c0.4016113,0,1.0441895-0.1203613,1.5258789-0.4016113V544.0278931z
		 M560.3171997,482.7153625c0,0.4160156,0,0.8322754,0,1.3547363c-3.9289551,0-7.7299805,0-11.6794434,0
		c0-16.6416016,0-33.2341309,0-49.798584c-2.6862793-0.5002441-2.927002-0.2861328-3.326416,2.1535645
		c-1.8408203,11.2446289-3.8994141,22.4411621-8.6347656,32.921875c-2.1845703,4.8354492-4.7700195,9.4272461-9.2700195,12.5678711
		c-5.9162598,4.1289062-12.3862305,4.8325195-19.0082703,2.3222656
		c-6.9880371-2.6491699-10.7355957-9.3789062-10.2617188-17.7966309
		c0.6787109-12.0561523,6.3173828-21.5402832,15.4496765-29.1547852
		c9.6142578-8.0166016,20.9035645-12.0979004,33.0854492-14.0935059c0.5759277-0.0942383,1.1479492-0.2119141,1.795166-0.3322754
		c0.4951172-6.9919434-4.2897949-12.2070312-11.5300293-12.7790527c-8.0712891-0.6374512-14.4094238,2.7126465-19.4602051,8.6816406
		c-2.2502441,2.6594238-4.0793457,5.6748047-6.1991882,8.6696777c-2.7370605-1.6894531-5.6176758-3.4677734-8.5969238-5.3068848
		c3.2363281-5.9853516,7.2011719-11.1845703,12.5114441-15.2878418c8.0673828-6.2336426,17.0952148-8.6003418,27.1760254-6.6984863
		c8.7558594,1.6520996,15.4133301,8.2636719,16.9968262,17.1386719c0.5397949,3.0256348,0.8967285,6.1274414,0.9101562,9.1962891
		C560.3572388,445.2209778,560.3167114,463.9680481,560.3171997,482.7153625z M641.5247192,484.0766907
		c-3.7890625,0-7.5444336,0-11.5332031,0c0-23.5161133,0-47.0124512,0-70.5019531
		c-2.8452148-0.0681152-2.8491211,0.010498-3.1154785,2.5170898c-1.6032715,15.09375-3.6096191,30.1184082-8.6469727,44.5412598
		c-2.1835938,6.2514648-4.8129883,12.3076172-9.3774414,17.2739258c-6.3652344,6.925293-14.1791992,9.5246582-23.2912598,7.0024414
		c-7.1533203-1.9799805-10.6206055-7.4924316-12.0368652-14.3828125c-1.5563965-7.5715332-0.5969238-15.0541992,1.425293-22.4174805
		c3.9880371-14.5214844,12.4648438-25.760498,24.8591309-34.2651367
		c8.6967773-5.9672852,18.3078613-9.4187012,28.5708008-11.2939453c1.2800293-0.2338867,1.6091309-0.7021484,1.6030273-1.9465332
		c-0.0483398-10.2258301-0.0275879-20.4519043-0.027832-30.6779785c0-0.6208496,0-1.2416992,0-1.9416504
		c3.9694824,0,7.7268066,0,11.5708008,0C641.5247192,406.6955872,641.5247192,445.3357239,641.5247192,484.0766907z"/>
</g>
</svg>
