<svg width="922" height="542" viewBox="0 0 922 542" fill="none" xmlns="http://www.w3.org/2000/svg">
<path d="M215.557 540.659C209.373 539.542 203.633 536.389 199.242 531.695C194.686 526.747 189.594 517.786 191.21 503.201C192.096 495.202 194.92 485.622 199.841 473.914C210.194 449.284 230.633 413.675 260.592 368.077C291.454 321.104 322.898 276.554 353.896 235.735C352.756 234.164 351.587 232.618 350.387 231.098C344.102 223.132 330.585 208.146 310.672 197.27C295.531 188.911 278.728 184.472 261.831 184.367C256.942 198.705 250.79 212.515 243.446 225.637C232.914 244.573 217.927 264.394 202.329 280.016C182.79 299.585 164.912 310.152 149.193 311.421C137.134 312.395 126.131 308.024 118.211 299.113C109.647 289.478 107.435 275.775 111.637 258.384C119.958 223.937 157.487 165.12 211.612 148.275C216.955 146.612 222.29 145.227 227.616 144.12C229.294 135.028 230.031 125.739 229.815 116.402C229.156 92.581 221.557 73.2857 207.841 60.6024C192.943 46.8253 170.895 41.3375 144.08 44.7319C110.155 49.0274 69.6058 67.5212 26.8171 98.2143L0.968841 62.2794C49.8796 27.1948 95.5775 6.75966 136.793 1.54146C187.195 -4.83975 218.506 12.9906 235.897 29.0722C264.661 55.6703 276.68 96.3661 271.582 141.374C273.6 141.55 275.611 141.769 277.617 142.031C295.696 144.414 313.331 150.227 329.587 159.165C353.952 172.472 371.175 190.187 380.548 201.42C414.849 158.276 448.225 120.271 479.236 89.2433C509.217 59.2458 535.664 36.9646 557.842 23.0183C575.619 11.8398 601.7 -1.5265 622.847 11.4061C628.71 14.9914 636.338 22.0479 639.38 35.3039C641.072 42.6758 641.119 51.0486 639.525 60.9008C636.857 77.3788 629.302 98.7403 617.07 124.392C591.67 177.656 572.77 217.85 560.856 250.082C554.701 266.736 550.898 279.967 549.231 290.531C547.336 302.537 548.887 307.39 549.408 308.591C549.667 309.19 549.913 309.756 552.221 310.556C552.53 310.665 560.014 312.943 582.001 293.468C599.966 277.555 620.537 253.453 642.316 227.937C673.231 191.717 705.198 154.263 739.249 127.855C758.912 112.604 777.124 102.739 794.925 97.6946C816.854 91.4807 837.989 92.784 857.741 101.568C871.413 107.648 881.178 118.219 885.982 132.139C893.65 154.361 888.615 183.3 869.657 225.973C855.009 258.945 834.142 295.361 813.962 330.578C798.062 358.327 783.043 384.537 772.481 406.608C763.955 424.426 760.682 434.874 759.464 440.677C765.279 439.894 775.769 437.396 793.464 430.094C819.418 419.384 854.944 400.803 899.055 374.869L921.853 412.788C868.446 444.188 828.201 464.653 798.818 475.352C774.941 484.046 745.18 491.636 726.839 472.999C717.532 463.541 714.144 450.341 716.772 433.766C718.384 423.596 722.363 411.41 728.937 396.512C740.265 370.84 757.926 340.02 776.623 307.39C796.288 273.072 816.623 237.585 830.412 206.547C848.943 164.834 847.187 149.442 845.571 144.76C845.083 143.347 844.607 142.408 842.113 141.299C831.727 136.68 820.653 136.142 808.259 139.655C795.715 143.209 781.598 151.028 766.298 162.894C735.504 186.776 704.9 222.632 675.304 257.308C652.587 283.924 631.129 309.064 611.065 326.837C595.252 340.843 571.956 358.154 546.841 353.464C544.566 353.038 542.317 352.441 540.114 351.677C526.21 346.861 515.891 337.462 510.273 324.497C493.374 285.493 521.974 222.05 578.291 103.953C591.266 76.7437 595.706 60.7157 597.14 52.0272C591.609 54.3244 583.041 58.8491 570.658 67.7609C550.397 82.3431 525.571 104.681 498.867 132.358C475.115 156.976 443.527 192.321 405.701 240.627C410.081 249.687 413.796 259.037 416.815 268.595C427.258 301.543 430.527 334.16 426.531 365.542C421.183 407.536 402.88 446.09 372.129 480.133C352.845 501.481 331.674 517.354 309.202 527.313C287.714 536.836 265.641 540.756 243.597 538.965C241.222 538.772 238.84 538.51 236.469 538.181C235.198 538.666 233.814 539.142 232.359 539.561C225.81 541.451 220.217 541.529 215.557 540.659ZM375.907 279.699C351.458 312.593 324.918 350.329 296.627 393.388C260.303 448.674 244.954 478.894 238.481 494.795C240.639 495.143 242.821 495.407 244.998 495.584C260.02 496.805 275.327 494.016 290.493 487.295C307.784 479.632 324.403 467.054 339.889 449.91C364.91 422.211 379.747 391.275 383.99 357.961C387.171 332.984 384.496 306.792 376.04 280.115C375.996 279.977 375.951 279.837 375.907 279.699ZM208.462 198.077C195.455 206.091 182.757 218.262 172.029 233.255C164.164 244.246 159.213 254.022 156.258 261.563C161.62 257.61 166.659 253.235 171.331 248.478C184.258 235.561 197.162 218.524 205.851 202.904C206.745 201.296 207.615 199.687 208.462 198.077Z" fill="#95D194" fill-opacity="0.65"/>
</svg>
