<svg width="380" height="453" viewBox="0 0 380 453" fill="none" xmlns="http://www.w3.org/2000/svg">
<g style="mix-blend-mode:color-dodge" opacity="0.85" clip-path="url(#clip0_58_822)">
<path d="M355.882 453H103.507C103.507 437.1 102.994 421.692 103.702 406.341C104.118 397.337 100.97 394.538 92.4649 395.276C85.3125 395.896 78.0648 395.485 70.8611 395.394C48.4775 395.111 34.5753 381.275 34.3242 358.532C34.0693 335.447 34.4051 312.356 34.4051 289.272C34.4051 282.395 32.1977 279.051 24.3035 279.051C16.2618 279.051 8.89372 279.178 0 279.178C2.27163 257.876 3.77863 238.065 6.61686 218.45C10.9528 188.485 12.7853 157.572 21.6781 128.961C56.2107 17.8609 162.871 -18.5429 250.458 8.57883C347.894 38.7501 401.731 141.695 371.677 240.186C363.401 267.308 351.27 293.207 341.983 320.047C336.023 337.274 330.64 354.945 327.489 372.863C323.047 398.117 330.516 421.045 346.304 441.129C349.138 444.735 352.061 448.27 355.882 453Z" fill="white"/>
<g clip-path="url(#clip1_58_822)">
<path d="M148.641 279.976H146.914V267.281H151.512C154.645 267.281 156.432 268.772 156.432 271.251C156.432 273.749 154.645 275.24 151.512 275.24H148.641V279.976ZM151.472 273.81C153.681 273.81 154.746 272.903 154.746 271.251C154.746 269.618 153.681 268.711 151.472 268.711H148.641V273.81L151.472 273.81Z" fill="#191919"/>
<path d="M158.604 276.913C158.764 278.263 159.708 278.988 161.213 278.988C162.378 278.988 163.242 278.565 163.242 277.679C163.242 276.853 162.659 276.571 161.575 276.369L160.089 276.107C158.443 275.845 157.459 275.139 157.459 273.628C157.459 272.016 158.804 270.928 160.832 270.928C163.162 270.928 164.527 272.016 164.687 274.051L163.342 274.132C163.141 272.782 162.318 272.157 160.832 272.157C159.728 272.157 159.005 272.661 159.005 273.467C159.005 274.172 159.447 274.535 160.35 274.697L161.997 274.958C163.764 275.261 164.808 275.925 164.808 277.517C164.808 279.27 163.262 280.217 161.213 280.217C159.025 280.217 157.358 279.189 157.197 277.013L158.604 276.913Z" fill="#191919"/>
<path d="M166.496 267.281H168.223V269.175H166.496V267.281ZM168.203 271.17V279.976H166.536V271.17L168.203 271.17Z" fill="#191919"/>
<path d="M174.409 270.928C174.934 270.901 175.459 270.98 175.953 271.16C176.448 271.34 176.901 271.617 177.287 271.976C177.672 272.335 177.982 272.768 178.198 273.249C178.415 273.73 178.532 274.249 178.545 274.777L177.08 274.877C177.083 274.527 177.015 274.179 176.879 273.855C176.744 273.532 176.544 273.24 176.292 272.996C176.04 272.753 175.742 272.564 175.415 272.44C175.087 272.317 174.738 272.262 174.389 272.278C172.742 272.278 171.618 273.548 171.618 275.583C171.618 277.618 172.742 278.887 174.389 278.887C174.742 278.897 175.093 278.835 175.421 278.705C175.749 278.576 176.047 278.381 176.299 278.132C176.55 277.884 176.749 277.587 176.883 277.26C177.017 276.933 177.084 276.582 177.08 276.228L178.545 276.369C178.534 276.897 178.417 277.417 178.202 277.899C177.986 278.381 177.676 278.814 177.29 279.173C176.904 279.533 176.45 279.81 175.955 279.989C175.46 280.169 174.934 280.246 174.409 280.217C173.204 280.183 172.061 279.678 171.221 278.811C170.381 277.944 169.911 276.782 169.911 275.573C169.911 274.364 170.381 273.202 171.221 272.335C172.061 271.468 173.204 270.963 174.409 270.928Z" fill="#191919"/>
<path d="M184.21 280.217C183.289 280.244 182.38 279.994 181.601 279.499C180.822 279.004 180.208 278.288 179.838 277.44C179.467 276.593 179.357 275.655 179.521 274.744C179.686 273.834 180.117 272.994 180.76 272.331C181.403 271.668 182.229 271.213 183.131 271.024C184.034 270.835 184.972 270.921 185.825 271.27C186.679 271.619 187.409 272.216 187.923 272.985C188.436 273.753 188.71 274.657 188.708 275.582C188.743 276.19 188.651 276.798 188.439 277.368C188.227 277.939 187.9 278.458 187.476 278.894C187.053 279.33 186.544 279.673 185.982 279.901C185.42 280.129 184.816 280.236 184.21 280.217ZM184.21 278.928C185.997 278.928 187.001 277.538 187.001 275.582C187.001 273.608 185.997 272.238 184.21 272.238C182.443 272.238 181.459 273.608 181.459 275.582C181.459 277.538 182.443 278.928 184.21 278.928Z" fill="#191919"/>
<path d="M192.102 267.281V279.976H190.436V267.281H192.102Z" fill="#191919"/>
<path d="M198.269 280.217C197.347 280.244 196.439 279.994 195.66 279.499C194.881 279.004 194.267 278.288 193.896 277.44C193.526 276.593 193.416 275.655 193.58 274.744C193.744 273.834 194.176 272.994 194.819 272.331C195.462 271.668 196.288 271.213 197.19 271.024C198.092 270.835 199.03 270.921 199.884 271.27C200.738 271.619 201.468 272.216 201.981 272.985C202.495 273.753 202.768 274.657 202.766 275.582C202.801 276.19 202.71 276.798 202.498 277.368C202.286 277.939 201.958 278.458 201.535 278.894C201.112 279.33 200.603 279.673 200.041 279.901C199.478 280.129 198.875 280.236 198.269 280.217ZM198.269 278.928C200.056 278.928 201.06 277.538 201.06 275.582C201.06 273.608 200.056 272.238 198.269 272.238C196.501 272.238 195.518 273.608 195.518 275.582C195.518 277.538 196.501 278.928 198.269 278.928Z" fill="#191919"/>
<path d="M208.009 276.913C207.349 276.927 206.693 276.803 206.082 276.55C205.917 276.63 205.777 276.753 205.674 276.905C205.572 277.057 205.512 277.234 205.5 277.417C205.5 277.9 205.801 278.182 206.563 278.182H209.997C211.905 278.182 212.909 279.19 212.909 280.56C212.909 282.756 210.459 283.602 207.849 283.602C205.479 283.602 203.512 282.857 203.512 281.225C203.527 280.745 203.722 280.289 204.056 279.946C204.391 279.602 204.841 279.397 205.319 279.371C204.983 279.288 204.685 279.094 204.474 278.819C204.262 278.545 204.15 278.207 204.154 277.86C204.182 277.482 204.324 277.122 204.56 276.827C204.797 276.532 205.118 276.316 205.479 276.208C205.117 275.951 204.824 275.609 204.624 275.212C204.425 274.815 204.325 274.375 204.335 273.931C204.335 272.077 205.861 270.928 208.009 270.928C209.004 270.899 209.977 271.22 210.76 271.835C211.004 271.465 211.335 271.161 211.724 270.95C212.113 270.739 212.548 270.627 212.99 270.626V272.077C212.408 272.076 211.833 272.199 211.302 272.439C211.579 272.887 211.726 273.404 211.724 273.931C211.724 275.764 210.178 276.913 208.009 276.913ZM207.849 282.494C209.856 282.494 211.302 282.011 211.302 280.741C211.302 279.935 210.64 279.653 209.616 279.653H206.785C205.881 279.653 205.098 279.956 205.098 280.902C205.098 282.011 206.223 282.494 207.849 282.494ZM208.029 272.016C207.657 272.035 207.298 272.163 206.998 272.384C206.697 272.606 206.467 272.91 206.337 273.261C206.207 273.611 206.182 273.992 206.265 274.357C206.348 274.722 206.535 275.054 206.804 275.313C207.073 275.573 207.412 275.747 207.778 275.815C208.145 275.884 208.523 275.843 208.867 275.698C209.211 275.553 209.505 275.311 209.713 275C209.921 274.69 210.033 274.325 210.037 273.951C210.06 273.684 210.023 273.416 209.928 273.165C209.834 272.915 209.685 272.689 209.493 272.503C209.301 272.318 209.069 272.178 208.816 272.093C208.563 272.009 208.294 271.983 208.029 272.016Z" fill="#191919"/>
<path d="M214.095 267.281H215.822V269.175H214.095V267.281ZM215.801 271.17V279.976H214.135V271.17L215.801 271.17Z" fill="#191919"/>
<path d="M225.139 278.243C225.128 278.335 225.139 278.429 225.169 278.517C225.2 278.606 225.25 278.686 225.315 278.752C225.381 278.818 225.461 278.868 225.549 278.898C225.637 278.929 225.73 278.939 225.823 278.928C226.089 278.923 226.351 278.853 226.585 278.726V279.633C226.344 279.881 226.034 280.051 225.696 280.122C225.358 280.193 225.007 280.162 224.687 280.033C224.366 279.903 224.091 279.681 223.897 279.395C223.702 279.109 223.597 278.771 223.593 278.424C223.284 278.986 222.825 279.45 222.269 279.766C221.712 280.083 221.08 280.239 220.441 280.217C218.734 280.217 217.63 279.291 217.63 277.779C217.63 276.107 219.056 275.422 221.164 274.998L223.534 274.515V274.172C223.559 273.911 223.527 273.647 223.44 273.399C223.352 273.152 223.212 272.927 223.027 272.74C222.843 272.553 222.62 272.41 222.375 272.32C222.129 272.229 221.866 272.195 221.606 272.218C221.085 272.192 220.573 272.358 220.167 272.685C219.76 273.011 219.486 273.476 219.397 273.991L217.911 273.79C218.076 272.94 218.544 272.18 219.228 271.653C219.913 271.126 220.765 270.868 221.626 270.928C223.835 270.928 225.139 272.057 225.139 274.293V278.243ZM223.534 275.623L221.566 276.046C220.18 276.348 219.296 276.61 219.296 277.679C219.296 278.424 219.799 278.988 220.803 278.988C221.179 278.99 221.552 278.914 221.897 278.764C222.243 278.614 222.554 278.394 222.81 278.117C223.067 277.841 223.263 277.514 223.388 277.158C223.512 276.801 223.562 276.423 223.534 276.046V275.623Z" fill="#191919"/>
<path d="M220.116 248.646H213.953V247.636C213.953 237.358 213.951 227.081 213.949 216.803C214.075 215.041 213.78 213.275 213.09 211.65C212.774 211.073 212.323 210.58 211.777 210.214C211.231 209.848 210.605 209.619 209.952 209.546C209.299 209.474 208.639 209.559 208.026 209.796C207.413 210.033 206.866 210.414 206.43 210.908C205.067 212.556 204.592 214.594 204.107 216.603C202.033 225.198 200.024 233.809 197.899 242.392C197.542 243.904 196.922 245.34 196.067 246.636C193.922 249.76 189.395 249.545 186.795 247.962C184.412 246.51 183.938 244.204 183.916 241.718C183.872 236.864 183.905 232.009 183.9 227.154C183.896 223.236 183.938 219.317 183.842 215.401C183.784 214.188 183.541 212.99 183.12 211.851C182.868 211.147 182.398 210.543 181.778 210.127C181.158 209.712 180.421 209.507 179.676 209.543C178.952 209.482 178.225 209.625 177.576 209.955C176.928 210.285 176.384 210.79 176.005 211.412C174.82 213.234 174.373 215.324 173.877 217.387C171.86 225.763 169.854 234.141 167.859 242.522C167.326 244.745 166.488 246.789 164.473 248.122C161.404 250.151 154.379 249.169 153.977 243.201C153.917 242.295 153.869 241.386 153.868 240.479C153.861 228.839 153.859 217.198 153.864 205.558V204.442H160.072V205.467C160.072 217.448 160.074 229.43 160.077 241.411C160.077 242.008 159.886 242.811 160.747 242.932C161.64 243.058 161.719 242.24 161.87 241.617C164.056 232.583 166.203 223.538 168.447 214.518C168.891 212.732 169.537 211.003 170.372 209.363C172.78 204.661 177.029 202.724 182.21 203.785C186.326 204.628 189.16 207.746 189.791 212.231C189.994 213.663 190.1 215.107 190.108 216.553C190.137 224.843 190.119 233.134 190.128 241.424C190.128 242.016 189.926 242.827 190.804 242.933C191.696 243.041 191.756 242.225 191.907 241.6C194.101 232.538 196.258 223.467 198.512 214.42C198.953 212.662 199.593 210.96 200.42 209.348C202.827 204.656 207.094 202.716 212.267 203.789C216.432 204.653 219.234 207.805 219.863 212.418C220.043 213.711 220.137 215.014 220.144 216.319C220.166 226.796 220.169 237.272 220.155 247.749C220.155 248.027 220.132 248.305 220.116 248.646Z" fill="#191919"/>
<path d="M297.286 186.734H303.432V248.619H297.306V211.037C295.794 211.001 295.792 211.043 295.651 212.379C294.799 220.425 293.733 228.434 291.057 236.122C289.898 239.455 288.501 242.683 286.076 245.33C282.695 249.022 278.544 250.407 273.704 249.063C269.904 248.008 268.062 245.069 267.31 241.396C266.608 237.409 266.868 233.312 268.067 229.446C270.099 221.944 274.796 215.447 281.272 211.181C285.845 208.111 291.02 206.058 296.449 205.16C297.129 205.036 297.304 204.786 297.301 204.123C297.275 198.672 297.286 193.22 297.286 187.769V186.734ZM289.993 212.901C289.502 213.089 289.207 213.182 288.929 213.311C279.401 217.754 274.047 225.167 273.116 235.706C272.914 237.403 273.085 239.123 273.616 240.747C274.485 243.186 276.413 244.319 278.772 243.74C279.954 243.418 281.014 242.749 281.813 241.817C283.477 239.84 284.719 237.543 285.464 235.066C287.248 229.688 288.505 224.148 289.218 218.525C289.488 216.709 289.72 214.888 289.993 212.901Z" fill="#191919"/>
<path d="M69.0043 204.45H75.1701V205.569C75.1701 217.435 75.1703 229.302 75.1709 241.168C75.127 241.477 75.141 241.791 75.2122 242.095C75.3495 242.418 75.6655 242.916 75.8731 242.902C76.2023 242.878 76.5477 242.53 76.8043 242.245C76.9556 242.077 76.9527 241.766 77.0126 241.518C79.2229 232.374 81.4351 223.23 83.6491 214.086C84.1386 211.922 85.0249 209.869 86.2626 208.03C88.99 204.102 92.8081 202.923 97.3522 203.785C101.363 204.546 104.14 207.557 104.846 211.9C105.072 213.27 105.189 214.657 105.196 216.046C105.225 226.635 105.212 237.224 105.212 247.813V248.618H99.0431V247.533C99.0429 237.512 99.0623 227.491 99.0225 217.469C99.0154 215.884 98.861 214.303 98.5614 212.746C98.4526 211.932 98.0736 211.179 97.4857 210.609C96.8977 210.038 96.1351 209.683 95.3213 209.601C93.4147 209.328 91.7839 209.926 90.9943 211.698C90.1271 213.661 89.4339 215.697 88.9227 217.782C86.874 226.061 84.9287 234.366 82.9342 242.659C82.449 244.676 81.7173 246.585 79.9488 247.845C77.5898 249.527 75.0654 249.405 72.5354 248.305C70.162 247.274 69.2193 245.267 69.0427 242.806C69.0042 242.269 69.006 241.728 69.0059 241.189C69.004 229.266 69.0034 217.342 69.0043 205.419V204.45Z" fill="#191919"/>
<path d="M254 215.987C254.263 212.259 251.721 209.479 247.875 209.175C243.588 208.835 240.221 210.621 237.538 213.802C236.342 215.22 235.371 216.827 234.245 218.424L229.678 215.595C231.294 212.437 233.559 209.659 236.324 207.446C238.318 205.816 240.646 204.651 243.143 204.034C245.639 203.416 248.241 203.362 250.76 203.875C253.019 204.28 255.098 205.375 256.714 207.01C258.33 208.645 259.404 210.741 259.789 213.011C260.089 214.628 260.251 216.268 260.272 217.913C260.316 227.906 260.295 237.9 260.295 247.893V248.615H254.091V222.07C252.664 221.803 252.536 221.917 252.324 223.218C251.346 229.212 250.252 235.18 247.737 240.767C246.577 243.345 245.203 245.792 242.813 247.467C241.377 248.524 239.694 249.193 237.925 249.41C236.157 249.627 234.363 249.384 232.716 248.704C229.003 247.292 227.013 243.705 227.264 239.218C227.625 232.791 230.62 227.735 235.471 223.676C240.578 219.403 246.575 217.227 253.046 216.164C253.352 216.113 253.656 216.051 254 215.987ZM246.575 223.635C241.713 225.097 237.621 228.422 235.185 232.89C233.947 235.106 233.389 237.639 233.581 240.172C233.954 243.466 236.923 244.748 239.51 242.681C240.452 241.875 241.245 240.908 241.852 239.824C243.355 237.061 244.426 234.083 245.026 230.993C245.587 228.603 246.042 226.188 246.575 223.635Z" fill="#191919"/>
<path d="M146.084 225.231C146.033 230.295 145.387 235.334 143.052 240.007C140.867 244.382 137.658 247.635 132.775 248.845C129.147 249.793 125.296 249.345 121.981 247.588C118.666 245.831 116.126 242.893 114.861 239.351C112.951 234.324 112.763 229.108 113.131 223.841C113.329 219.517 114.529 215.299 116.635 211.521C119.029 207.41 122.395 204.53 127.19 203.7C134.379 202.457 140.583 205.644 143.743 212.365C145.644 216.409 146.023 220.753 146.084 225.231ZM119.146 228.242C119.196 229.033 119.226 229.942 119.315 230.844C119.498 233.71 120.291 236.503 121.641 239.036C122.236 240.123 123.06 241.067 124.056 241.801C125.052 242.535 126.196 243.042 127.408 243.286C128.62 243.531 129.87 243.506 131.071 243.215C132.273 242.924 133.396 242.373 134.363 241.6C136.768 239.674 137.998 237.01 138.817 234.134C139.759 230.561 140.101 226.856 139.83 223.171C139.76 220.3 139.144 217.468 138.017 214.829C135.661 209.663 131.223 208.295 126.79 209.914C123.971 210.943 122.367 213.258 121.197 215.891C119.464 219.787 119.154 223.933 119.146 228.242Z" fill="#191919"/>
</g>
</g>
<defs>
<clipPath id="clip0_58_822">
<rect width="380" height="453" fill="white"/>
</clipPath>
<clipPath id="clip1_58_822">
<rect width="234.428" height="96.8679" fill="white" transform="translate(69.0049 186.734)"/>
</clipPath>
</defs>
</svg>
