<svg width="101" height="30" viewBox="0 0 101 30" fill="none" xmlns="http://www.w3.org/2000/svg">
<path d="M65.1058 29.0632H62.4502V28.592C62.4501 23.7974 62.4497 19.0028 62.4488 14.2082C62.5028 13.3864 62.3759 12.5624 62.0787 11.8043C61.9422 11.5351 61.7481 11.3054 61.5128 11.1346C61.2775 10.9638 61.0078 10.857 60.7266 10.823C60.4454 10.7891 60.1608 10.8291 59.8967 10.9396C59.6327 11.0501 59.3969 11.2279 59.2093 11.4581C58.6218 12.2272 58.4173 13.1778 58.2084 14.115C57.3145 18.1246 56.4493 22.1419 55.5337 26.1456C55.3799 26.8508 55.1127 27.5211 54.7445 28.1254C53.8204 29.5831 51.8699 29.4827 50.7497 28.7439C49.7228 28.0667 49.5189 26.991 49.5093 25.8314C49.4904 23.5667 49.5044 21.3017 49.5022 19.0369C49.5005 17.2092 49.5186 15.3808 49.4772 13.5541C49.4523 12.9881 49.3475 12.4296 49.1665 11.8983C49.0578 11.5698 48.855 11.2879 48.5879 11.094C48.3208 10.9001 48.0035 10.8045 47.6826 10.8212C47.3704 10.7929 47.0572 10.8595 46.7778 11.0136C46.4985 11.1676 46.264 11.403 46.1007 11.6934C45.5905 12.5433 45.3979 13.5181 45.1838 14.4808C44.315 18.3881 43.4508 22.2967 42.5913 26.2065C42.3616 27.2431 42.0007 28.1967 41.1323 28.8185C39.8102 29.7653 36.7834 29.3073 36.6106 26.5229C36.5844 26.1004 36.5638 25.6766 36.5635 25.2533C36.5604 19.823 36.5597 14.3927 36.5615 8.96237V8.44182H39.2365V8.92008C39.2365 14.5093 39.2371 20.0986 39.2385 25.6879C39.2386 25.9664 39.1563 26.341 39.5273 26.3975C39.912 26.4562 39.946 26.0749 40.011 25.7841C40.9529 21.5695 41.8776 17.3503 42.8445 13.1425C43.0358 12.3092 43.3141 11.5023 43.6739 10.7376C44.7116 8.54389 46.542 7.64037 48.7744 8.1354C50.5477 8.52862 51.7688 9.9833 52.0404 12.0752C52.128 12.7432 52.1736 13.417 52.1768 14.0918C52.1894 17.9592 52.1817 21.8266 52.1855 25.6941C52.1857 25.9704 52.0986 26.3486 52.4767 26.3982C52.861 26.4486 52.887 26.0675 52.9522 25.776C53.8973 21.5487 54.8267 17.3171 55.7976 13.0967C55.9877 12.2765 56.2635 11.4827 56.6196 10.7306C57.6566 8.54174 59.4953 7.63649 61.7239 8.13707C63.5184 8.54014 64.7254 10.0106 64.9965 12.1625C65.074 12.7656 65.1144 13.3737 65.1174 13.9827C65.127 18.8699 65.1286 23.7572 65.1223 28.6445C65.1223 28.7744 65.1123 28.9043 65.1058 29.0632Z" fill="white"/>
<path d="M98.3511 0.181152H100.999V29.0507H98.3598V11.5185C97.7085 11.5015 97.7077 11.5211 97.6467 12.1444C97.2798 15.8979 96.8206 19.6342 95.6677 23.2207C95.168 24.7754 94.5663 26.2814 93.5216 27.5164C92.0649 29.2386 90.2766 29.885 88.1911 29.2577C86.5541 28.7654 85.7605 27.3945 85.4364 25.681C85.1342 23.8212 85.246 21.9097 85.7626 20.1064C86.6379 16.6066 88.6616 13.5757 91.4519 11.5855C93.4222 10.1534 95.6517 9.19575 97.9906 8.77691C98.2836 8.71876 98.3589 8.60234 98.3575 8.29285C98.3464 5.74995 98.3512 3.20696 98.3511 0.663991V0.181152ZM95.2093 12.3878C94.9975 12.4757 94.8704 12.519 94.7506 12.5795C90.6459 14.652 88.3389 18.1102 87.9378 23.0265C87.851 23.8182 87.9246 24.6209 88.1534 25.3784C88.5276 26.516 89.3583 27.0444 90.3746 26.7745C90.8841 26.6245 91.3405 26.3121 91.685 25.8776C92.4016 24.9554 92.9369 23.8836 93.2581 22.7281C94.0266 20.2192 94.5682 17.6348 94.8751 15.0117C94.9916 14.1647 95.0917 13.315 95.2093 12.3878Z" fill="white"/>
<path d="M0.000181064 8.44564H2.65661V8.96784C2.65661 14.5036 2.65674 20.0394 2.65699 25.5751C2.63807 25.7192 2.64409 25.8658 2.67475 26.0074C2.73393 26.1583 2.87006 26.3907 2.95949 26.3837C3.10136 26.3728 3.25017 26.2103 3.36071 26.0772C3.42589 25.9988 3.42464 25.8541 3.45046 25.7384C4.40275 21.4725 5.35583 17.2068 6.3097 12.9412C6.52062 11.9318 6.90244 10.9737 7.4357 10.1159C8.61076 8.28335 10.2558 7.73346 12.2135 8.13574C13.9414 8.49078 15.1378 9.89551 15.4422 11.9212C15.5394 12.5606 15.5899 13.2074 15.593 13.8554C15.6052 18.7952 15.5999 23.735 15.5999 28.6748V29.0506H12.942V28.5443C12.942 23.8694 12.9503 19.1944 12.9332 14.5195C12.9301 13.7799 12.8636 13.0422 12.7345 12.3159C12.6876 11.9364 12.5243 11.5852 12.271 11.319C12.0177 11.0528 11.6892 10.8872 11.3385 10.849C10.5171 10.7217 9.81448 11.0003 9.47431 11.8272C9.10067 12.7429 8.80201 13.6926 8.58179 14.6652C7.6991 18.5275 6.86099 22.4018 6.00172 26.2704C5.79264 27.2117 5.47743 28.102 4.7155 28.69C3.69914 29.4744 2.61153 29.4175 1.52152 28.9046C0.498944 28.4233 0.0928027 27.487 0.0167205 26.3392C0.000109124 26.0885 0.000897043 25.8362 0.000859359 25.5847C2.34798e-05 20.0225 -0.000202619 14.4602 0.000181064 8.89796V8.44564Z" fill="white"/>
<path d="M79.7027 13.8273C79.8159 12.0885 78.7209 10.7917 77.0638 10.6494C75.2167 10.4909 73.7661 11.324 72.6102 12.8084C72.0951 13.4697 71.6766 14.2195 71.1914 14.9643L69.2239 13.6446C69.9199 12.1714 70.8959 10.8756 72.0873 9.84288C72.9462 9.08283 73.9495 8.5392 75.0249 8.25117C76.1004 7.96313 77.2213 7.93784 78.3068 8.17714C79.2801 8.36618 80.1759 8.87693 80.8721 9.63969C81.5683 10.4024 82.0309 11.38 82.1968 12.439C82.3262 13.1935 82.3959 13.9586 82.4051 14.726C82.4239 19.3879 82.4146 24.0499 82.4147 28.7119V29.0488H79.7418V16.6651C79.1269 16.5407 79.0719 16.5939 78.9805 17.2006C78.5592 19.9969 78.088 22.7812 77.0043 25.3875C76.5044 26.59 75.9127 27.7319 74.8828 28.5128C74.264 29.0062 73.5389 29.3184 72.7771 29.4195C72.0153 29.5206 71.2424 29.4073 70.5325 29.0903C68.9332 28.4315 68.0755 26.758 68.184 24.6647C68.3393 21.6666 69.6298 19.3082 71.7198 17.4146C73.9202 15.4211 76.5038 14.4062 79.2918 13.9099C79.4236 13.8865 79.5545 13.8572 79.7027 13.8273ZM76.5037 17.3955C74.4091 18.0774 72.646 19.6285 71.5964 21.7128C71.0629 22.7464 70.8225 23.9283 70.9055 25.1099C71.0662 26.6464 72.3452 27.2445 73.4598 26.2802C73.8659 25.9042 74.2075 25.4531 74.4688 24.9477C75.1164 23.6587 75.5777 22.2691 75.8363 20.8277C76.078 19.7127 76.2741 18.5861 76.5037 17.3955Z" fill="white"/>
<path d="M33.2077 18.1396C33.1859 20.502 32.9074 22.8527 31.9016 25.0328C30.9601 27.0736 29.5777 28.5911 27.4737 29.1559C25.9106 29.5982 24.2518 29.3889 22.8235 28.5693C21.3952 27.7496 20.3009 26.3789 19.7558 24.7268C18.9331 22.3819 18.852 19.9485 19.0107 17.4911C19.0959 15.4741 19.6127 13.5063 20.52 11.7441C21.5517 9.82613 23.0018 8.48239 25.0676 8.09545C28.1647 7.51535 30.838 9.00232 32.1994 12.1379C33.0184 14.0243 33.1817 16.0507 33.2077 18.1396ZM21.6018 19.5444C21.6234 19.9134 21.6362 20.3373 21.6749 20.7584C21.7537 22.0953 22.0955 23.3983 22.6771 24.5796C22.9333 25.0868 23.2883 25.5271 23.7175 25.8696C24.1466 26.2122 24.6394 26.4487 25.1615 26.5626C25.6835 26.6766 26.2222 26.6653 26.7398 26.5294C27.2574 26.3935 27.7414 26.1364 28.158 25.7761C29.1942 24.8775 29.7242 23.6346 30.077 22.2931C30.4826 20.6264 30.6301 18.8979 30.5135 17.1785C30.4832 15.8392 30.218 14.5185 29.7321 13.2872C28.7174 10.877 26.8052 10.2388 24.8952 10.9942C23.6807 11.4745 22.9898 12.5545 22.4855 13.7824C21.7391 15.6 21.6056 17.5341 21.6018 19.5444Z" fill="white"/>
</svg>
